<?xml version="1.0" encoding="UTF-8" standalone="no"?>
<!DOCTYPE svg PUBLIC "-//W3C//DTD SVG 1.1//EN" "http://www.w3.org/Graphics/SVG/1.1/DTD/svg11.dtd">
<svg width="100%" height="100%" viewBox="0 0 774 168" version="1.1" xmlns="http://www.w3.org/2000/svg" xmlns:xlink="http://www.w3.org/1999/xlink" xml:space="preserve" xmlns:serif="http://www.serif.com/" style="fill-rule:evenodd;clip-rule:evenodd;stroke-linejoin:round;stroke-miterlimit:2;">
    <g transform="matrix(1,0,0,1,-7363.28,-181.705)">
        <g id="Artboard15" transform="matrix(1,0,0,0.833147,14.3121,95.0285)">
            <rect x="7348.96" y="104.035" width="773.552" height="201.387" style="fill:none;"/>
            <g transform="matrix(1.10042,0,0,1.3208,-3376.51,-1479.07)">
                <g>
                    <g transform="matrix(0.971571,0,0,0.879689,1602.68,695.607)">
                        <path d="M8487.4,646.34L8491.28,650.691L8495.47,652.732C8497.78,653.857 8499.71,654.858 8499.76,654.978C8499.81,655.063 8499.17,656.638 8498.35,658.5L8494.57,663.838L8477.48,655.724L8469.51,651.432C8470.34,651.259 8471.97,648.568 8472.94,647.51C8474.57,645.764 8477.41,644.082 8480.98,642.788C8482.26,642.318 8483.37,641.916 8483.43,641.931C8483.47,641.938 8485.24,643.929 8487.4,646.34Z" style="fill:url(#_Linear1);"/>
                    </g>
                    <g transform="matrix(0.971571,0,0,0.879689,1602.68,695.607)">
                        <path d="M8502.77,581.377L8544.63,581.377L8544.63,617.001C8544.6,616.99 8544.57,616.978 8544.53,616.967C8541.11,615.8 8536.55,614.296 8534.42,613.652C8530.78,612.546 8530.14,612.25 8525.93,609.435C8521.71,606.655 8521.14,606.374 8518.5,605.759L8515.64,605.091L8512.38,607.373C8508.93,609.794 8504.4,611.632 8502.84,611.269C8502.4,611.165 8502.03,610.971 8502.06,610.865C8502.08,610.725 8502.71,610.029 8503.46,609.25C8504.69,608.034 8504.96,607.474 8505.88,604.39C8506.48,602.477 8507.14,599.404 8507.38,597.592C8507.83,594.397 8507.78,594.129 8506.61,589.163L8505.37,583.999L8502.77,581.377Z" style="fill:url(#_Linear2);"/>
                    </g>
                    <g transform="matrix(0.971571,0,0,0.879689,1602.68,695.607)">
                        <path d="M8389.31,611.557L8389.31,581.377L8485.6,581.377L8482.45,583.452L8476.67,589.58L8476.71,600.486C8476.88,606.721 8479.82,617.793 8479.84,617.87C8479.89,617.955 8483.23,616.809 8485.23,616.58L8488.92,616.195L8490.58,617.607C8491.45,618.399 8492.18,619.118 8492.16,619.223C8492.15,619.293 8490.88,620.024 8489.37,620.808C8487.16,621.942 8486.25,622.684 8484.7,624.557C8482.75,626.961 8478.51,630.336 8474.58,632.68C8472.83,633.7 8471.95,633.936 8469.84,634.065C8467.66,634.145 8466.95,634.383 8465.58,635.309C8462.94,637.148 8457.89,645.741 8457.89,645.741L8433.26,633.367C8433.26,633.367 8398.76,618.427 8398.51,618.15C8398.27,617.838 8408.14,602.572 8408.14,602.572L8404.32,597.548C8403.93,597.859 8391.49,609.323 8391.49,609.323L8389.31,611.557Z" style="fill:url(#_Linear3);"/>
                    </g>
                </g>
                <g>
                    <g transform="matrix(0.971571,0,0,0.879689,1602.68,695.607)">
                        <path d="M8544.63,649.575L8544.63,736.702L8483.12,736.702C8483.88,735.902 8484.5,735.213 8484.86,734.752C8485.83,733.511 8487.78,731.621 8489.29,730.507L8491.96,728.527L8503.75,730.033C8510.26,730.892 8515.65,731.491 8515.77,731.408C8515.92,731.332 8516.65,728.717 8517.44,725.639C8518.65,720.863 8520.69,707.729 8520.69,707.729L8517.05,685.466L8523.08,672.975C8523.08,672.975 8529.86,647.38 8530.63,638.649C8531.09,633.259 8531.29,632.572 8532.15,632.772C8532.53,632.861 8534.01,632.618 8535.44,632.256C8538.3,631.495 8538.6,631.492 8538.46,632.229C8538.4,632.544 8538.56,633.644 8538.82,634.695C8539.08,635.746 8539.54,636.912 8539.5,637.087C8539.48,637.207 8536.95,639.029 8535.43,640.814C8534.73,641.642 8533.91,645.66 8533.91,645.66L8534.46,654.191L8540.51,654.236L8544.63,649.575Z" style="fill:url(#_Linear4);"/>
                    </g>
                    <g transform="matrix(0.971571,0,0,0.879689,1602.68,695.607)">
                        <path d="M8468.89,736.702L8389.31,736.702L8389.31,629.397L8398.08,632.643L8413.48,643.055L8432.21,655.966L8443.68,657.648L8458.32,673.457L8478.73,686.373L8492.35,699.307L8493.03,707.469L8495.42,712.897L8480.73,710.618L8472.15,723.795L8468.89,736.702Z" style="fill:url(#_Linear5);"/>
                    </g>
                </g>
                <g>
                    <g transform="matrix(0.451709,0,0,0.373109,7790.15,-251.411)">
                        <path d="M5078.49,4123.98L5078.49,4236.53L5047.35,4274.23L4891.63,4274.23L4891.63,4098.44L4933.16,4098.29L4933.16,4223.96L5036.96,4223.96L5036.96,4098.29L5056.78,4098.29L5078.49,4123.98Z" style="fill:url(#_Linear6);"/>
                    </g>
                    <g transform="matrix(0.451709,0,0,-0.373109,7879.95,2872.45)">
                        <path d="M5078.49,4274.23L4914.13,4274.23L4891.63,4246.99L4891.63,4211.39L4922.78,4211.39L4922.78,4223.96L4985.06,4223.96L4985.06,4148.56L4968.76,4148.56L4968.76,4098.29L5026.58,4098.29L5026.58,4223.96L5047.35,4223.96L5047.35,4211.39L5078.49,4211.39L5078.49,4274.23Z" style="fill:url(#_Linear7);"/>
                    </g>
                    <g transform="matrix(0.451709,0,0,-0.373109,7969.66,2872.45)">
                        <path d="M5078.49,4274.23L4952.42,4274.23L4891.66,4274.08L4891.63,4211.39L4922.78,4211.39L4922.78,4223.96L4947.07,4223.96L4947.07,4098.29L5004.52,4098.29L5004.22,4148L4988.85,4148.18L4988.6,4223.96L5047.35,4223.96L5047.35,4211.39L5078.49,4211.39L5078.49,4274.23Z" style="fill:url(#_Linear8);"/>
                    </g>
                    <g transform="matrix(-0.475985,0,0,0.586132,12348.6,-1302.45)">
                        <path d="M5122.64,4401.99L5122.64,4467.05L5083.23,4467.05L5083.23,4433.99L4984.72,4433.99L4984.72,4441.99L5073.38,4441.99L5073.38,4473.99L4984.72,4473.99L4984.72,4481.99L5073.38,4481.99L5083.23,4473.99L5122.64,4473.99L5122.64,4513.99L4945.31,4513.99L4945.31,4473.99L4965.02,4457.99L4945.31,4441.99L4945.31,4401.99L5122.64,4401.99Z" style="fill:url(#_Linear9);"/>
                    </g>
                    <g transform="matrix(0.463893,0,0,0.468906,8067.36,-829.562)">
                        <path d="M4927.26,4493.99L4927.26,4593.99L4886.83,4633.99L4745.31,4633.99L4745.31,4493.99L4775.64,4493.99L4785.75,4503.99L4785.75,4593.99L4886.83,4593.8L4886.83,4533.99L4796.09,4533.99L4795.85,4493.99L4927.26,4493.99Z" style="fill:url(#_Linear10);"/>
                    </g>
                    <g transform="matrix(0.468906,0,0,0.468906,8128.67,-829.562)">
                        <path d="M4755.31,4633.99L4755.31,4493.99L4895.31,4493.99L4935.31,4533.99L4935.31,4633.99L4895.12,4633.99L4895.31,4533.99L4795.31,4533.99L4795.31,4633.99L4755.31,4633.99Z" style="fill:url(#_Linear11);"/>
                    </g>
                    <g transform="matrix(0.451709,0,0,-0.373109,7790.23,2801.79)">
                        <path d="M5078.49,4274.23L4891.63,4274.23L4891.46,4223.96L4985.06,4223.96L4985.06,4148.56L4922.78,4148.56L4891.63,4148.6L4891.46,4098.29L5056.65,4098.29L5078.49,4124.72L5078.49,4148.56L5026.58,4148.56L5026.58,4223.96L5078.49,4224.1L5078.49,4274.23Z" style="fill:url(#_Linear12);"/>
                    </g>
                    <g transform="matrix(0.468906,0,0,0.468906,7755.57,-900.221)">
                        <path d="M4715.31,4633.99L4635.31,4553.99L4635.31,4633.99L4595.31,4633.99L4595.31,4493.99L4624.17,4493.99L4669.49,4538.43L4715.31,4493.99L4775.31,4493.99L4775.31,4533.99L4735.31,4533.99L4705.31,4563.99L4735.31,4593.99L4775.31,4593.99L4775.31,4633.99L4715.31,4633.99Z" style="fill:url(#_Linear13);"/>
                    </g>
                    <g transform="matrix(0.468906,0,0,0.468906,8024.49,-900.221)">
                        <path d="M4715.31,4633.99L4634.75,4553.44L4635.31,4633.99L4595.31,4633.99L4595.31,4493.99L4624.17,4493.99L4670.44,4539.23L4715.31,4493.99L4775.31,4493.99L4705.31,4563.99L4775.31,4633.99L4715.31,4633.99Z" style="fill:url(#_Linear14);"/>
                    </g>
                    <g transform="matrix(0.463893,0,0,0.468906,7888.23,-900.221)">
                        <path d="M4886.83,4593.99L4886.83,4583.01L4927.26,4583.01L4927.26,4593.99L4886.83,4633.99L4767.22,4633.99L4745.31,4612.32L4745.31,4513.51L4766.93,4493.99L4886.83,4493.27L4927.26,4533.01L4927.26,4543.01L4886.83,4543.01L4886.83,4533.01L4785.75,4533.5L4785.75,4593.99L4886.83,4593.99Z" style="fill:url(#_Linear15);"/>
                    </g>
                </g>
            </g>
        </g>
    </g>
    <defs>
        <linearGradient id="_Linear1" x1="0" y1="0" x2="1" y2="0" gradientUnits="userSpaceOnUse" gradientTransform="matrix(8.40117e-15,151.532,-137.201,9.27865e-15,9095.1,580.99)"><stop offset="0" style="stop-color:white;stop-opacity:1"/><stop offset="0.46" style="stop-color:rgb(246,246,246);stop-opacity:1"/><stop offset="1" style="stop-color:rgb(224,224,224);stop-opacity:1"/></linearGradient>
        <linearGradient id="_Linear2" x1="0" y1="0" x2="1" y2="0" gradientUnits="userSpaceOnUse" gradientTransform="matrix(8.40117e-15,151.532,-137.201,9.27865e-15,9095.1,580.99)"><stop offset="0" style="stop-color:white;stop-opacity:1"/><stop offset="0.46" style="stop-color:rgb(246,246,246);stop-opacity:1"/><stop offset="1" style="stop-color:rgb(224,224,224);stop-opacity:1"/></linearGradient>
        <linearGradient id="_Linear3" x1="0" y1="0" x2="1" y2="0" gradientUnits="userSpaceOnUse" gradientTransform="matrix(8.40117e-15,151.532,-137.201,9.27865e-15,9095.1,580.99)"><stop offset="0" style="stop-color:white;stop-opacity:1"/><stop offset="0.46" style="stop-color:rgb(246,246,246);stop-opacity:1"/><stop offset="1" style="stop-color:rgb(224,224,224);stop-opacity:1"/></linearGradient>
        <linearGradient id="_Linear4" x1="0" y1="0" x2="1" y2="0" gradientUnits="userSpaceOnUse" gradientTransform="matrix(8.40117e-15,151.532,-137.201,9.27865e-15,9095.1,580.99)"><stop offset="0" style="stop-color:white;stop-opacity:1"/><stop offset="0.46" style="stop-color:rgb(246,246,246);stop-opacity:1"/><stop offset="1" style="stop-color:rgb(224,224,224);stop-opacity:1"/></linearGradient>
        <linearGradient id="_Linear5" x1="0" y1="0" x2="1" y2="0" gradientUnits="userSpaceOnUse" gradientTransform="matrix(8.40117e-15,151.532,-137.201,9.27865e-15,9095.1,580.99)"><stop offset="0" style="stop-color:white;stop-opacity:1"/><stop offset="0.46" style="stop-color:rgb(246,246,246);stop-opacity:1"/><stop offset="1" style="stop-color:rgb(224,224,224);stop-opacity:1"/></linearGradient>
        <linearGradient id="_Linear6" x1="0" y1="0" x2="1" y2="0" gradientUnits="userSpaceOnUse" gradientTransform="matrix(1.80699e-14,357.27,-295.103,2.18765e-14,5864.53,3907.99)"><stop offset="0" style="stop-color:white;stop-opacity:1"/><stop offset="0.46" style="stop-color:rgb(246,246,246);stop-opacity:1"/><stop offset="1" style="stop-color:rgb(224,224,224);stop-opacity:1"/></linearGradient>
        <linearGradient id="_Linear7" x1="0" y1="0" x2="1" y2="0" gradientUnits="userSpaceOnUse" gradientTransform="matrix(1.80699e-14,-357.27,-295.103,-2.18765e-14,5665.74,4464.52)"><stop offset="0" style="stop-color:white;stop-opacity:1"/><stop offset="0.46" style="stop-color:rgb(246,246,246);stop-opacity:1"/><stop offset="1" style="stop-color:rgb(224,224,224);stop-opacity:1"/></linearGradient>
        <linearGradient id="_Linear8" x1="0" y1="0" x2="1" y2="0" gradientUnits="userSpaceOnUse" gradientTransform="matrix(1.80699e-14,-357.27,-295.103,-2.18765e-14,5467.13,4464.52)"><stop offset="0" style="stop-color:white;stop-opacity:1"/><stop offset="0.46" style="stop-color:rgb(246,246,246);stop-opacity:1"/><stop offset="1" style="stop-color:rgb(224,224,224);stop-opacity:1"/></linearGradient>
        <linearGradient id="_Linear9" x1="0" y1="0" x2="1" y2="0" gradientUnits="userSpaceOnUse" gradientTransform="matrix(-1.71483e-14,227.425,280.053,1.39258e-14,4011.51,4280.86)"><stop offset="0" style="stop-color:white;stop-opacity:1"/><stop offset="0.46" style="stop-color:rgb(246,246,246);stop-opacity:1"/><stop offset="1" style="stop-color:rgb(224,224,224);stop-opacity:1"/></linearGradient>
        <linearGradient id="_Linear10" x1="0" y1="0" x2="1" y2="0" gradientUnits="userSpaceOnUse" gradientTransform="matrix(1.75953e-14,284.281,-287.353,1.74072e-14,5112.95,4342.58)"><stop offset="0" style="stop-color:white;stop-opacity:1"/><stop offset="0.46" style="stop-color:rgb(246,246,246);stop-opacity:1"/><stop offset="1" style="stop-color:rgb(224,224,224);stop-opacity:1"/></linearGradient>
        <linearGradient id="_Linear11" x1="0" y1="0" x2="1" y2="0" gradientUnits="userSpaceOnUse" gradientTransform="matrix(1.74072e-14,284.281,-284.281,1.74072e-14,4927.52,4342.58)"><stop offset="0" style="stop-color:white;stop-opacity:1"/><stop offset="0.46" style="stop-color:rgb(246,246,246);stop-opacity:1"/><stop offset="1" style="stop-color:rgb(224,224,224);stop-opacity:1"/></linearGradient>
        <linearGradient id="_Linear12" x1="0" y1="0" x2="1" y2="0" gradientUnits="userSpaceOnUse" gradientTransform="matrix(1.80699e-14,-357.27,-295.103,-2.18765e-14,5864.35,4275.14)"><stop offset="0" style="stop-color:white;stop-opacity:1"/><stop offset="0.46" style="stop-color:rgb(246,246,246);stop-opacity:1"/><stop offset="1" style="stop-color:rgb(224,224,224);stop-opacity:1"/></linearGradient>
        <linearGradient id="_Linear13" x1="0" y1="0" x2="1" y2="0" gradientUnits="userSpaceOnUse" gradientTransform="matrix(1.74072e-14,284.281,-284.281,1.74072e-14,5723.22,4493.27)"><stop offset="0" style="stop-color:white;stop-opacity:1"/><stop offset="0.46" style="stop-color:rgb(246,246,246);stop-opacity:1"/><stop offset="1" style="stop-color:rgb(224,224,224);stop-opacity:1"/></linearGradient>
        <linearGradient id="_Linear14" x1="0" y1="0" x2="1" y2="0" gradientUnits="userSpaceOnUse" gradientTransform="matrix(1.74072e-14,284.281,-284.281,1.74072e-14,5149.7,4493.27)"><stop offset="0" style="stop-color:white;stop-opacity:1"/><stop offset="0.46" style="stop-color:rgb(246,246,246);stop-opacity:1"/><stop offset="1" style="stop-color:rgb(224,224,224);stop-opacity:1"/></linearGradient>
        <linearGradient id="_Linear15" x1="0" y1="0" x2="1" y2="0" gradientUnits="userSpaceOnUse" gradientTransform="matrix(1.75953e-14,284.281,-287.353,1.74072e-14,5499.09,4493.27)"><stop offset="0" style="stop-color:white;stop-opacity:1"/><stop offset="0.46" style="stop-color:rgb(246,246,246);stop-opacity:1"/><stop offset="1" style="stop-color:rgb(224,224,224);stop-opacity:1"/></linearGradient>
    </defs>
</svg>
